<svg viewBox="0 0 752 471" xmlns="http://www.w3.org/2000/svg"><g fill="none" fill-rule="evenodd"><rect fill="#2557D6" x="1" width="750" height="471" rx="40"/><path d="M1.003 221.185h36.024l8.123-19.51h18.185l8.101 19.51h70.88V206.27l6.327 14.98h36.796l6.327-15.202v15.138h176.151l-.082-32.026h3.408c2.386.083 3.083.302 3.083 4.226v27.8h91.106v-7.455c7.349 3.92 18.779 7.455 33.819 7.455h38.328l8.203-19.51h18.185l8.021 19.51h73.86v-18.532l11.186 18.532h59.187V98.678h-58.576v14.468l-8.202-14.468h-60.105v14.468l-7.532-14.468h-81.188c-13.59 0-25.536 1.889-35.186 7.153v-7.153h-56.026v7.153c-6.14-5.426-14.508-7.153-23.812-7.153H180.908l-13.734 31.641-14.104-31.641H88.6v14.468l-7.083-14.468H26.534L1 156.924v64.261h.003zm227.396-17.67h-21.614l-.08-68.794-30.573 68.793H157.62l-30.652-68.854v68.854H84.084l-8.101-19.592h-43.9L23.9 203.514H1l37.756-87.837h31.326l35.859 83.164v-83.164h34.412l27.593 59.587 25.347-59.587h35.104v87.837h.003zM68.777 165.692l-14.43-35.017-14.35 35.017h28.78zm245.642 37.821h-70.433v-87.837h70.433v18.291h-49.348V149.8h48.165v18.005H265.07v17.542h49.348v18.166zm99.256-64.18c0 14.004-9.386 21.24-14.856 23.412 4.613 1.748 8.553 4.838 10.43 7.397 2.976 4.369 3.49 8.271 3.49 16.116v17.255h-21.266l-.08-11.077c0-5.285.508-12.886-3.328-17.112-3.081-3.09-7.777-3.76-15.368-3.76h-22.633v31.95H328.98v-87.838h48.495c10.775 0 18.714.283 25.53 4.207 6.67 3.924 10.67 9.652 10.67 19.45zm-26.652 13.042c-2.898 1.752-6.324 1.81-10.43 1.81H350.98v-19.51h25.962c3.674 0 7.508.164 9.998 1.584 2.735 1.28 4.427 4.003 4.427 7.765 0 3.84-1.61 6.929-4.344 8.351zm60.466 51.138h-21.513v-87.837h21.513v87.837zm249.74 0H667.35l-39.964-65.927v65.927h-42.94l-8.204-19.592h-43.799l-7.96 19.592H499.81c-10.248 0-23.224-2.257-30.572-9.715-7.41-7.458-11.265-17.56-11.265-33.533 0-13.027 2.304-24.936 11.366-34.347 6.816-7.01 17.49-10.242 32.02-10.242h20.412v18.821h-19.984c-7.694 0-12.039 1.14-16.224 5.203-3.594 3.699-6.06 10.69-6.06 19.897 0 9.41 1.878 16.196 5.797 20.628 3.245 3.476 9.144 4.53 14.694 4.53h9.469l29.716-69.076h31.592l35.696 83.081v-83.08h32.103l37.062 61.174V115.68h21.596v87.834zm-128.159-37.82l-14.591-35.017-14.51 35.017h29.1zm181.886 178.074c-5.121 7.458-15.101 11.239-28.611 11.239h-40.718v-18.84h40.553c4.022 0 6.837-.527 8.532-2.175a7.71 7.71 0 002.493-5.73c0-2.56-1.024-4.592-2.575-5.81-1.53-1.341-3.757-1.95-7.429-1.95-19.797-.67-44.495.609-44.495-27.194 0-12.743 8.125-26.157 30.25-26.157h41.998v-17.48h-39.02c-11.776 0-20.33 2.808-26.388 7.174v-7.175H627.83c-9.23 0-20.063 2.279-25.187 7.175v-7.175H499.578v7.175c-8.203-5.892-22.043-7.175-28.431-7.175h-67.983v7.175c-6.49-6.258-20.92-7.175-29.716-7.175h-76.085l-17.41 18.763-16.307-18.763H149.99v122.592h111.516l17.94-19.06 16.9 19.06 68.739.061v-28.838h6.757c9.12.14 19.878-.226 29.368-4.31v33.085h56.697v-31.952h2.735c3.49 0 3.834.143 3.834 3.616v28.333H636.71c10.935 0 22.365-2.787 28.695-7.845v7.845h54.632c11.369 0 22.471-1.587 30.918-5.651v-22.838zm-341.503-47.154c0 24.406-18.286 29.445-36.716 29.445H346.43v29.469h-40.98l-25.962-29.085-26.981 29.085H168.99v-87.859h84.8l25.941 28.799 26.819-28.799h67.371c16.732 0 35.532 4.613 35.532 28.945zm-167.625 40.434h-51.839v-17.481h46.289V301.64h-46.289v-15.973h52.86l23.062 25.604-24.083 25.776zm83.526 10.06l-32.37-35.788 32.37-34.651v70.439zm47.873-39.066H345.98v-22.374h27.492c7.612 0 12.896 3.09 12.896 10.773 0 7.598-5.04 11.601-13.14 11.601zm142.744-40.373h70.369v18.17h-49.372v15.973h48.167v17.925h-48.167v17.481l49.372.08v18.23h-70.37v-87.859zm-27.054 47.03c4.693 1.724 8.53 4.816 10.329 7.375 2.977 4.29 3.408 8.293 3.493 16.037v17.417H481.57v-10.992c0-5.286.511-13.112-3.408-17.198-3.08-3.147-7.777-3.9-15.468-3.9h-22.533v32.09h-21.186v-87.859h48.678c10.674 0 18.448.47 25.369 4.146 6.654 4.004 10.839 9.488 10.839 19.51-.003 14.024-9.395 21.18-14.945 23.373zM477 303.59c-2.82 1.667-6.308 1.81-10.41 1.81h-25.614v-19.733h25.962c3.754 0 7.51.08 10.062 1.587 2.732 1.423 4.366 4.144 4.366 7.903 0 3.76-1.634 6.788-4.366 8.433zm190.336 5.597c4.106 4.23 6.306 9.572 6.306 18.614 0 18.9-11.858 27.723-33.122 27.723h-41.065v-18.84h40.9c4 0 6.836-.527 8.613-2.175 1.45-1.359 2.49-3.333 2.49-5.73 0-2.56-1.125-4.592-2.573-5.81-1.612-1.34-3.836-1.95-7.508-1.95-19.717-.67-44.41.61-44.41-27.193 0-12.744 8.04-26.158 30.144-26.158h42.269v18.7h-38.677c-3.834 0-6.327.143-8.447 1.587-2.31 1.422-3.166 3.534-3.166 6.32 0 3.315 1.96 5.57 4.613 6.545 2.224.77 4.613.996 8.205.996l11.35.305c11.446.278 19.303 2.249 24.078 7.066zM751 285.667h-38.427c-3.836 0-6.385.143-8.532 1.587-2.224 1.423-3.081 3.534-3.081 6.322 0 3.314 1.878 5.569 4.61 6.544 2.225.77 4.614.996 8.126.996l11.427.304c11.531.284 19.228 2.258 23.921 7.072.855.67 1.368 1.422 1.956 2.175v-25z" fill="#FFF"/></g></svg>,115.67957 L606.46843,198.76138 L606.46843,115.67957 L638.5709,115.67957 L675.6327,176.85368 L675.6327,115.67957 L697.22856,115.67957 L697.22856,203.51436 L697.22856,203.51436 Z M569.07051,165.69287 L554.47993,130.67606 L539.96916,165.69287 L569.07051,165.69287 L569.07051,165.69287 Z" id="Path" fill="#FFFFFF" sketch:type="MSShapeGroup"></path>
            <path d="M750.95644,343.76716 C745.83485,351.22516 735.85504,355.00582 722.34464,355.00582 L681.62723,355.00582 L681.62723,336.1661 L722.17969,336.1661 C726.20248,336.1661 729.01736,335.63887 730.71215,333.99096 C732.18079,332.63183 733.2051,330.65804 733.2051,328.26036 C733.2051,325.70107 732.18079,323.66899 730.62967,322.45028 C729.09984,321.10969 726.87294,320.50033 723.20135,320.50033 C703.40402,319.83005 678.70592,321.10969 678.70592,293.30714 C678.70592,280.56363 686.83131,267.14983 708.95664,267.14983 L750.95379,267.14983 L750.95379,249.66925 L711.93382,249.66925 C700.15812,249.66925 691.60438,252.47759 685.54626,256.84375 L685.54626,249.66925 L627.83044,249.66925 C618.60091,249.66925 607.76706,251.94771 602.64279,256.84375 L602.64279,249.66925 L499.57751,249.66925 L499.57751,256.84375 C491.37496,250.95154 477.53466,249.66925 471.14663,249.66925 L403.16366,249.66925 L403.16366,256.84375 C396.67452,250.58593 382.24357,249.66925 373.44772,249.66925 L297.3633,249.66925 L279.95252,268.43213 L263.64586,249.66925 L149.99149,249.66925 L149.99149,372.26121 L261.50676,372.26121 L279.447,353.20159 L296.34697,372.26121 L365.08554,372.32211 L365.08554,343.48364 L371.84339,343.48364 C380.96384,343.62405 391.72054,343.25845 401.21079,339.17311 L401.21079,372.25852 L457.90762,372.25852 L457.90762,340.30704 L460.64268,340.30704 C464.13336,340.30704 464.47657,340.45011 464.47657,343.92344 L464.47657,372.25587 L636.71144,372.25587 C647.64639,372.25587 659.07621,369.46873 665.40571,364.41107 L665.40571,372.25587 L720.03792,372.25587 C731.40656,372.25587 742.50913,370.66889 750.95644,366.60475 L750.95644,343.76712 L750.95644,343.76716 Z M409.45301,296.61266 C409.45301,321.01872 391.16689,326.05784 372.7371,326.05784 L346.42935,326.05784 L346.42935,355.52685 L305.44855,355.52685 L279.48667,326.44199 L252.5058,355.52685 L168.9904,355.52685 L168.9904,267.66822 L253.79086,267.66822 L279.73144,296.46694 L306.55002,267.66822 L373.92106,267.66822 C390.6534,267.66822 409.45301,272.28078 409.45301,296.61266 L409.45301,296.61266 Z M241.82781,337.04655 L189.9892,337.04655 L189.9892,319.56596 L236.27785,319.56596 L236.27785,301.64028 L189.9892,301.64028 L189.9892,285.66718 L242.84947,285.66718 L265.91132,311.27077 L241.82781,337.04655 L241.82781,337.04655 Z M325.3545,347.10668 L292.9833,311.3189 L325.3545,276.6677 L325.3545,347.10668 L325.3545,347.10668 Z M373.2272,308.04117 L345.98027,308.04117 L345.98027,285.66718 L373.47197,285.66718 C381.08388,285.66718 386.36777,288.75636 386.36777,296.43956 C386.36777,304.03796 381.32865,308.04117 373.2272,308.04117 L373.2272,308.04117 Z M515.97053,267.66822 L586.34004,267.66822 L586.34004,285.83764 L536.96778,285.83764 L536.96778,301.81074 L585.1348,301.81074 L585.1348,319.73642 L536.96778,319.73642 L536.96778,337.21701 L586.34004,337.29641 L586.34004,355.52678 L515.97053,355.52678 L515.97053,267.66815 L515.97053,267.66822 Z M488.91724,314.6973 C493.61049,316.42205 497.44703,319.51387 499.24559,322.07317 C502.22276,326.36251 502.65378,330.36571 502.73891,338.10985 L502.73891,355.52685 L481.5714,355.52685 L481.5714,344.53458 C481.5714,339.24908 482.08223,331.42282 478.1632,327.33748 C475.08226,324.19002 470.38635,323.4376 462.69463,323.4376 L440.16223,323.4376 L440.16223,355.52685 L418.97609,355.52685 L418.97609,267.66822 L467.65393,267.66822 C478.32816,267.66822 486.10236,268.13716 493.02251,271.81449 C499.6766,275.8177 503.86168,281.30191 503.86168,291.3245 C503.85868,305.34765 494.46719,312.50362 488.91724,314.6973 L488.91724,314.6973 Z M476.99899,303.59022 C474.17879,305.25668 470.69077,305.39975 466.58817,305.39975 L440.97483,305.39975 L440.97483,285.66718 L466.9367,285.66718 C470.69077,285.66718 474.4475,285.74658 476.99899,287.25416 C479.7314,288.67687 481.36499,291.39779 481.36499,295.15725 C481.36499,298.91672 479.7314,301.94496 476.99899,303.59022 L476.99899,303.59022 Z M667.33539,309.1866 C671.44067,313.41766 673.64095,318.7588 673.64095,327.80112 C673.64095,346.70178 661.78278,355.5242 640.51948,355.5242 L599.45353,355.5242 L599.45353,336.68449 L640.35453,336.68449 C644.35337,336.68449 647.18954,336.15726 648.9668,334.50934 C650.41681,333.15021 651.45709,331.17643 651.45709,328.77875 C651.45709,326.21944 650.33167,324.18738 648.88433,322.96866 C647.27201,321.62807 645.04778,321.01872 641.37619,321.01872 C621.65868,320.34843 596.9659,321.62807 596.9659,293.82551 C596.9659,281.08201 605.00615,267.66822 627.11019,267.66822 L669.37872,267.66822 L669.37872,286.36752 L630.70196,286.36752 C626.86809,286.36752 624.37512,286.51059 622.25464,287.9545 C619.94527,289.37721 619.08856,291.48876 619.08856,294.2759 C619.08856,297.59028 621.04941,299.8449 623.702,300.81987 C625.92624,301.59084 628.31543,301.81603 631.9072,301.81603 L643.25722,302.12071 C654.703,302.39889 662.55967,304.37003 667.33539,309.1866 L667.33539,309.1866 Z M751,285.66718 L712.57335,285.66718 C708.7368,285.66718 706.18797,285.81025 704.04088,287.25416 C701.81665,288.67687 700.95995,290.78843 700.95995,293.57558 C700.95995,296.88994 702.83831,299.14456 705.57071,300.11953 C707.79495,300.8905 710.18415,301.1157 713.6961,301.1157 L725.12327,301.42038 C736.65419,301.70387 744.35123,303.67765 749.04448,308.49157 C749.89852,309.16186 750.41202,309.91428 751,310.6667 L751,285.66718 L751,285.66718 Z" id="path13" fill="#FFFFFF" sketch:type="MSShapeGroup"></path>
        </g>
    </g>
</svg>