<svg id="Layer_1" data-name="Layer 1" xmlns="http://www.w3.org/2000/svg" viewBox="0 0 750 530.13" preserveAspectRatio="xMidYMid meet"><defs><style>.cls-2{fill:#005498}</style></defs><path d="M750 484.59a45.64 45.64 0 01-45.54 45.54H45.77A45.64 45.64 0 01.23 484.59v-439A45.64 45.64 0 0145.77 0h658.69A45.64 45.64 0 01750 45.54v439.05z" fill="#fff"/><path class="cls-2" d="M602.58 148.11H422.49l-18.4 20.7-59.33 66.93-18.4 20.7H148.8l17.94-20.93 8.51-9.89 17.94-20.93h-81.64c-15 0-27.14 12.65-27.14 27.83v58.88c0 15.41 12.19 27.83 27.14 27.83h313.24c14.95 0 35.42-9.2 45.31-20.7l47.38-53.82z"/><path d="M638.68 85.33c15 0 27.14 12.65 27.14 27.83v58.64c0 15.41-12.19 27.83-27.14 27.83h-81.41l18.17-20.7 9-10.35 18.17-20.7H422.49L326.59 256H147.88L276 111.09l4.83-5.52c10.12-11.27 30.59-20.7 45.54-20.7h312.31z" fill="#ffd800"/><path class="cls-2" d="M665.82 442.5V434c0-1.15-.69-1.84-2.3-1.84H658c-1.61 0-2.76-.23-3-.92-.46-.69-.46-2.07-.46-4.37v-32.2h9a2.36 2.36 0 002.3-2.3v-9a2.36 2.36 0 00-2.3-2.3h-9v-11.7a1.94 1.94 0 00-.46-1.38 3.27 3.27 0 00-1.38-.46h-.23l-13.34 2.3a11.21 11.21 0 00-1.61.69 2 2 0 00-.69 1.38v9h-9a2.36 2.36 0 00-2.3 2.3v7.36a1.39 1.39 0 00.69 1.38 3.71 3.71 0 001.61.92l9 1.38v32.2a37 37 0 001.15 9.66 15.28 15.28 0 003.45 5.75 12.22 12.22 0 005.75 2.76 42 42 0 008 .69 26.41 26.41 0 004.37-.23c1.15-.23 2.76-.46 4.37-.69a1.69 1.69 0 001.84-1.84M618 441.35v-9.89a1.39 1.39 0 00-.69-1.38 3.27 3.27 0 00-1.38-.46h-.23a56.63 56.63 0 01-6 .46 69.5 69.5 0 01-7.59.23 8.4 8.4 0 01-3.45-.69 8.75 8.75 0 01-3-2.07 8.85 8.85 0 01-1.84-3.91 23.15 23.15 0 01-.69-6.21v-9.2a23.15 23.15 0 01.69-6.21 12.39 12.39 0 011.84-3.91 8.75 8.75 0 013-2.07 9.23 9.23 0 013.45-.69 69.5 69.5 0 017.59.23c1.84.23 3.91.23 6 .46h.23a1.94 1.94 0 001.38-.46 1.39 1.39 0 00.69-1.38v-9.89a2.2 2.2 0 00-.46-1.61 6.74 6.74 0 00-1.84-.92c-1.61-.46-3.45-.69-6-1.15a50.09 50.09 0 00-8.74-.46c-7.82 0-14 2.3-18.86 7.13-4.6 4.83-7.13 11.73-7.13 20.93v9.2c0 9 2.3 16.1 7.13 20.93 4.6 4.83 11 7.13 18.86 7.13 3.22 0 6.21-.23 8.74-.46a55.86 55.86 0 006-1.15 3.46 3.46 0 001.84-.92c.46-.23.46-.92.46-1.61m-72-11.73a24.52 24.52 0 01-4.37 1.61 17.51 17.51 0 01-4.83.69c-2.3 0-4.14-.23-5.29-.92s-1.61-2.07-1.61-4.6v-.92a13.92 13.92 0 01.46-3.45 6 6 0 011.64-2.53 6 6 0 013-1.38 24.4 24.4 0 014.83-.46H546v12zm17.48-26.91a26.89 26.89 0 00-1.84-10.35 19.21 19.21 0 00-5.06-6.9 18.84 18.84 0 00-8.05-3.91 39.72 39.72 0 00-10.81-1.38 82.63 82.63 0 00-10.81.69 47.92 47.92 0 00-8.28 1.61c-1.38.46-2.07 1.15-2.07 2.53v9a3.32 3.32 0 00.46 1.61 3.27 3.27 0 001.38.46h.46c.92 0 2.07-.23 3.22-.23 1.38 0 2.76-.23 4.37-.23s3.45-.23 5.29-.23H537a11 11 0 016 1.38c1.38.92 2.3 3 2.3 6.21v3.91h-6c-9.43 0-16.56 1.38-20.7 4.37-4.37 3-6.44 7.82-6.44 14.26v.92c0 3.68.46 6.67 1.61 9a16.81 16.81 0 004.37 6 18.78 18.78 0 006 3.22 24.27 24.27 0 007.13.92 23.57 23.57 0 008.51-1.38 33.56 33.56 0 006.9-3.68v1.84a2.36 2.36 0 002.3 2.3h12.42a2.36 2.36 0 002.3-2.3v-39.64zm-59.11 39.79V434c0-1.15-.69-1.84-2.3-1.84h-5.52c-1.61 0-2.76-.23-3-.92-.46-.69-.46-2.07-.46-4.37v-32.2h9a2.36 2.36 0 002.3-2.3v-9a2.36 2.36 0 00-2.3-2.3h-9v-11.7a1.94 1.94 0 00-.46-1.38 3.27 3.27 0 00-1.38-.46H491l-13.34 2.3a11.21 11.21 0 00-1.61.69 2 2 0 00-.69 1.38v9h-9.2a2.36 2.36 0 00-2.3 2.3v7.36a1.39 1.39 0 00.69 1.38 3.71 3.71 0 001.61.92l9 1.38v32.2a37 37 0 001.15 9.66 15.28 15.28 0 003.45 5.75 12.22 12.22 0 005.75 2.76 42 42 0 008.05.69 26.41 26.41 0 004.37-.23c1.15-.23 2.76-.46 4.37-.69 1.38 0 2.07-.69 2.07-1.84m-48.3-.23v-36.8a46.55 46.55 0 00-.92-9.89 22.48 22.48 0 00-3-8.05 13.39 13.39 0 00-6-5.29 20.38 20.38 0 00-9.89-2.07 30.1 30.1 0 00-9.43 1.38 32.28 32.28 0 00-8.74 4.6v-2.76a2.36 2.36 0 00-2.3-2.3H403.4a2.36 2.36 0 00-2.3 2.3v58.88a2.36 2.36 0 002.3 2.3h13.34a2.36 2.36 0 002.3-2.3V398.8a58.81 58.81 0 015.52-2.53 13.11 13.11 0 015.06-.92 20.63 20.63 0 014.14.46 4.83 4.83 0 012.53 1.61 6.71 6.71 0 011.15 3.22 30.87 30.87 0 01.23 4.83v36.8a2.36 2.36 0 002.3 2.3h13.34a2.09 2.09 0 001.61-.69 1.82 1.82 0 001.15-1.61m-83.71-25.53c0 9-3.22 13.57-9.89 13.57-3.22 0-5.75-1.15-7.36-3.45s-2.53-5.75-2.53-10.12v-7.82c0-4.6.92-7.82 2.53-10.12s4.14-3.45 7.36-3.45c6.44 0 9.89 4.6 9.89 13.57zm17.93-7.82a38.4 38.4 0 00-1.84-12 25.06 25.06 0 00-5.29-9 23.19 23.19 0 00-8.74-5.75 35.56 35.56 0 00-23.91 0 23.19 23.19 0 00-8.74 5.75 25.06 25.06 0 00-5.29 9 38.4 38.4 0 00-1.84 12v7.82a38.4 38.4 0 001.84 12 25.06 25.06 0 005.29 9 23.19 23.19 0 008.74 5.75 35.56 35.56 0 0023.91 0 23.19 23.19 0 008.74-5.75 25.06 25.06 0 005.29-9 38.4 38.4 0 001.84-12zm-61.4 32.43v-9.89a1.39 1.39 0 00-.69-1.38 3.32 3.32 0 00-1.61-.46h-.23a56.63 56.63 0 01-6 .46 69.5 69.5 0 01-7.59.23 8.4 8.4 0 01-3.45-.69 8.75 8.75 0 01-3-2.07 8.85 8.85 0 01-1.84-3.91 23.15 23.15 0 01-.69-6.21v-9.2a23.15 23.15 0 01.69-6.21 12.39 12.39 0 011.84-3.91 8.75 8.75 0 013-2.07 9.23 9.23 0 013.45-.69 69.5 69.5 0 017.59.23c1.84.23 3.91.23 6 .46h.23a3.32 3.32 0 001.61-.46 1.39 1.39 0 00.69-1.38v-9.89a2.2 2.2 0 00-.46-1.61 6.74 6.74 0 00-1.84-.92c-1.61-.46-3.45-.69-6-1.15a50.09 50.09 0 00-8.74-.46c-7.82 0-14 2.3-18.86 7.13-4.6 4.83-7.13 11.73-7.13 20.93v9.2c0 9 2.3 16.1 7.13 20.93 4.6 4.83 11 7.13 18.86 7.13 3.22 0 6.21-.23 8.74-.46 2.53-.46 4.37-.69 6-1.15a3.46 3.46 0 001.84-.92 2.68 2.68 0 00.46-1.61m-54.51.92v-36.8a46.55 46.55 0 00-.92-9.89 22.48 22.48 0 00-3-8.05 13.39 13.39 0 00-6-5.29 20.38 20.38 0 00-9.89-2.07 30.1 30.1 0 00-9.43 1.38 32.28 32.28 0 00-8.74 4.6v-2.76a2.36 2.36 0 00-2.3-2.3h-12.39a2.36 2.36 0 00-2.3 2.3v58.88a2.36 2.36 0 002.3 2.3h13.34a2.36 2.36 0 002.3-2.3V398.8a58.81 58.81 0 015.52-2.53 13.11 13.11 0 015.06-.92 20.63 20.63 0 014.14.46 4.83 4.83 0 012.53 1.61 6.71 6.71 0 011.15 3.22 30.87 30.87 0 01.23 4.83v36.8a2.36 2.36 0 002.3 2.3h13.34a2.09 2.09 0 001.61-.69 1.82 1.82 0 001.15-1.61m-85.56-12.65a24.52 24.52 0 01-4.37 1.61 17.51 17.51 0 01-4.83.69c-2.3 0-4.14-.23-5.29-.92s-1.61-2.07-1.61-4.6v-.92a13.92 13.92 0 01.46-3.45 6 6 0 011.61-2.53 6 6 0 013-1.38 24.4 24.4 0 014.83-.46h6.21zm17.71-26.91a26.89 26.89 0 00-1.84-10.35 19.21 19.21 0 00-5.06-6.9 18.84 18.84 0 00-8-3.91 39.72 39.72 0 00-10.81-1.38 82.63 82.63 0 00-10.81.69 47.92 47.92 0 00-8.28 1.61c-1.38.46-2.07 1.15-2.07 2.53v9a3.32 3.32 0 00.46 1.61 3.27 3.27 0 001.38.46h.46c.92 0 2.07-.23 3.22-.23 1.38 0 2.76-.23 4.6-.23 1.61 0 3.45-.23 5.29-.23h5.29a11 11 0 016 1.38c1.38.92 2.3 3 2.3 6.21v3.91h-6c-9.43 0-16.56 1.38-20.7 4.37-4.37 3-6.44 7.82-6.44 14.26v.92c0 3.68.46 6.67 1.61 9a16.81 16.81 0 004.37 6 18.78 18.78 0 006 3.22 24.27 24.27 0 007.13.92 23.57 23.57 0 008.51-1.38 33.56 33.56 0 006.9-3.68v1.84a2.36 2.36 0 002.3 2.3h12.42a2.36 2.36 0 002.3-2.3v-39.64zm-79.12 17.48a8.78 8.78 0 01-3.21 7.13c-2.07 1.61-6.21 2.53-11.73 2.53h-9.2v-20.7h12.42c4.37 0 7.59.92 9.2 3a11.14 11.14 0 012.52 6.9zM127 387.3a17.75 17.75 0 01-.46 3.45 5.92 5.92 0 01-1.83 2.76 12.19 12.19 0 01-3.45 1.84 18 18 0 01-5.52.69h-12.47V377h8.51c5.75 0 9.66.69 12 2.07a7.28 7.28 0 013.44 6.67l-.22 1.56zm18.81 31.7a17.24 17.24 0 00-2.76-9.89 17.48 17.48 0 00-7.13-6.44 15.59 15.59 0 006.9-6.44 20.17 20.17 0 002.53-9.66v-2.07a23 23 0 00-2.53-11 19.28 19.28 0 00-7.13-7.13 34.57 34.57 0 00-11-3.91 89.53 89.53 0 00-14.26-1.15h-5.52c-1.84 0-3.68.23-5.52.23a34.45 34.45 0 00-5.06.46c-1.61.23-2.76.23-3.68.46-2.07.46-3.68.92-4.6 2.07-.92.92-1.38 2.76-1.38 5.29v67.38c0 2.53.46 4.14 1.38 5.29a9.53 9.53 0 004.6 2.07 20.26 20.26 0 003.91.46c1.61.23 3.22.23 5.06.46a44.32 44.32 0 005.52.23h5.75a82.93 82.93 0 0013.57-1.15 33.12 33.12 0 0011-3.91 21.8 21.8 0 007.59-7.59 24.51 24.51 0 002.76-12.19V419z"/><path fill="none" d="M0 0h749.77v530.13H0z"/></svg>-5.06.46c-1.61.23-2.76.23-3.68.46-2.07.46-3.68.92-4.6,2.07-.92.92-1.38,2.76-1.38,5.29v67.38c0,2.53.46,4.14,1.38,5.29a9.53,9.53,0,0,0,4.6,2.07,20.26,20.26,0,0,0,3.91.46c1.61.23,3.22.23,5.06.46a44.32,44.32,0,0,0,5.52.23h5.75a82.93,82.93,0,0,0,13.57-1.15,33.12,33.12,0,0,0,11-3.91,21.8,21.8,0,0,0,7.59-7.59,24.51,24.51,0,0,0,2.76-12.19V419Z"/><rect class="cls-4" width="749.77" height="530.13"/></svg>