<svg data-name="Layer 1" xmlns="http://www.w3.org/2000/svg" viewBox="0 0 750 661.16"><path d="M0 0v661.16h385.46c254.27 0 364.54-142.4 364.54-331.23C750 141.84 639.73 0 385.46 0z" fill="#fff"/><path d="M41.66 41.7h343.85c233.38 0 322.84 127.45 322.84 288.22 0 192.78-124.92 289.51-322.84 289.51H41.66zM75 75v511.12h310.51C573 586.12 675 498.76 675 329.92 675 156.4 564.41 75 385.51 75H75z"/><path d="M116.66 367.5h99.4v176.92h-99.4z"/><circle cx="166.35" cy="278.36" r="61.78"/><path d="M424.51 307.27v28.64h-70.82V221h68.56v28.6h-39.93v13.31h37.76v28.64h-37.76v15.73zm12.39 28.66l34.66-115h40.75l34.65 115h-29.81l-6.5-22.24h-37.47l-6.51 22.24zm44.68-50.86h20.73l-9.51-32.49h-1.73l-9.49 32.49zm79.78-64.14H590v86.35h42.42c-11.63-156.68-134.86-190.53-246.9-190.53h-119.4V221h17.67C316 221 336 242.84 336 278c0 36.28-19.52 57.93-52.22 57.93h-17.66V544.5h119.41c182.07 0 245.48-84.56 247.72-208.59h-71.89v-115zm-295.27 28.7v57.65h17.7c12.26 0 23.59-3.55 23.59-29.29 0-25.14-12.61-28.36-23.59-28.36z" fill="#d50072"/></svg>0,245.48-84.56,247.72-208.59H561.36v-115Zm-295.27,28.7v57.65h17.7c12.26,0,23.59-3.55,23.59-29.29,0-25.14-12.61-28.36-23.59-28.36Z"/></svg>